<mxfile>
    <diagram id="IYycEF86zBxGWhGIMK92" name="stacks">
        <mxGraphModel dx="1506" dy="864" grid="1" gridSize="10" guides="1" tooltips="1" connect="1" arrows="1" fold="1" page="1" pageScale="1" pageWidth="850" pageHeight="1100" math="0" shadow="0">
            <root>
                <mxCell id="0"/>
                <mxCell id="1" parent="0"/>
                <mxCell id="23" value="" style="edgeStyle=orthogonalEdgeStyle;rounded=0;orthogonalLoop=1;jettySize=auto;html=1;" edge="1" parent="1" source="2" target="17">
                    <mxGeometry relative="1" as="geometry"/>
                </mxCell>
                <mxCell id="2" value="php" style="rounded=0;whiteSpace=wrap;html=1;" vertex="1" parent="1">
                    <mxGeometry x="25" y="110" width="120" height="60" as="geometry"/>
                </mxCell>
                <mxCell id="22" value="" style="edgeStyle=orthogonalEdgeStyle;rounded=0;orthogonalLoop=1;jettySize=auto;html=1;" edge="1" parent="1" source="3" target="15">
                    <mxGeometry relative="1" as="geometry"/>
                </mxCell>
                <mxCell id="3" value="js" style="rounded=0;whiteSpace=wrap;html=1;" vertex="1" parent="1">
                    <mxGeometry x="170" y="110" width="120" height="60" as="geometry"/>
                </mxCell>
                <mxCell id="24" value="" style="edgeStyle=orthogonalEdgeStyle;rounded=0;orthogonalLoop=1;jettySize=auto;html=1;" edge="1" parent="1" source="4" target="16">
                    <mxGeometry relative="1" as="geometry"/>
                </mxCell>
                <mxCell id="25" value="" style="edgeStyle=orthogonalEdgeStyle;rounded=0;orthogonalLoop=1;jettySize=auto;html=1;" edge="1" parent="1" source="4" target="5">
                    <mxGeometry relative="1" as="geometry"/>
                </mxCell>
                <mxCell id="4" value="html" style="rounded=0;whiteSpace=wrap;html=1;" vertex="1" parent="1">
                    <mxGeometry x="301" y="110" width="120" height="60" as="geometry"/>
                </mxCell>
                <mxCell id="5" value="css" style="rounded=0;whiteSpace=wrap;html=1;" vertex="1" parent="1">
                    <mxGeometry x="441" y="21" width="120" height="60" as="geometry"/>
                </mxCell>
                <mxCell id="7" value="" style="edgeStyle=orthogonalEdgeStyle;rounded=0;orthogonalLoop=1;jettySize=auto;html=1;" edge="1" parent="1" source="6" target="5">
                    <mxGeometry relative="1" as="geometry"/>
                </mxCell>
                <mxCell id="AZURSVB4VajF0y3PMS-c-47" value="" style="edgeStyle=orthogonalEdgeStyle;rounded=0;orthogonalLoop=1;jettySize=auto;html=1;" edge="1" parent="1" source="6" target="5">
                    <mxGeometry relative="1" as="geometry"/>
                </mxCell>
                <mxCell id="6" value="scss" style="rounded=0;whiteSpace=wrap;html=1;" vertex="1" parent="1">
                    <mxGeometry x="441" y="170" width="120" height="60" as="geometry"/>
                </mxCell>
                <mxCell id="15" value="React/VUe" style="rounded=0;whiteSpace=wrap;html=1;" vertex="1" parent="1">
                    <mxGeometry x="170" y="240" width="120" height="60" as="geometry"/>
                </mxCell>
                <mxCell id="16" value="Bootstap/Jquery" style="rounded=0;whiteSpace=wrap;html=1;" vertex="1" parent="1">
                    <mxGeometry x="301" y="240" width="120" height="60" as="geometry"/>
                </mxCell>
                <mxCell id="17" value="wp/laravel" style="rounded=0;whiteSpace=wrap;html=1;" vertex="1" parent="1">
                    <mxGeometry x="25" y="240" width="120" height="60" as="geometry"/>
                </mxCell>
                <mxCell id="18" value="git/linux" style="rounded=0;whiteSpace=wrap;html=1;" vertex="1" parent="1">
                    <mxGeometry x="20" y="420" width="120" height="60" as="geometry"/>
                </mxCell>
                <mxCell id="20" value="" style="edgeStyle=orthogonalEdgeStyle;rounded=0;orthogonalLoop=1;jettySize=auto;html=1;" edge="1" parent="1" source="19" target="18">
                    <mxGeometry relative="1" as="geometry"/>
                </mxCell>
                <mxCell id="19" value="nginx/apache" style="rounded=0;whiteSpace=wrap;html=1;" vertex="1" parent="1">
                    <mxGeometry x="170" y="420" width="120" height="60" as="geometry"/>
                </mxCell>
                <mxCell id="29" value="graphql" style="rounded=0;whiteSpace=wrap;html=1;" vertex="1" parent="1">
                    <mxGeometry x="301" y="420" width="120" height="60" as="geometry"/>
                </mxCell>
                <mxCell id="30" value="database" style="rounded=0;whiteSpace=wrap;html=1;" vertex="1" parent="1">
                    <mxGeometry x="621" y="21" width="120" height="59" as="geometry"/>
                </mxCell>
                <mxCell id="n0IIaEPZANX_IhDjPebx-47" style="edgeStyle=orthogonalEdgeStyle;rounded=0;orthogonalLoop=1;jettySize=auto;html=1;exitX=0;exitY=0.5;exitDx=0;exitDy=0;" edge="1" parent="1" source="31">
                    <mxGeometry relative="1" as="geometry">
                        <mxPoint x="671" y="80" as="targetPoint"/>
                    </mxGeometry>
                </mxCell>
                <mxCell id="31" value="mysql" style="whiteSpace=wrap;html=1;rounded=0;" vertex="1" parent="1">
                    <mxGeometry x="691" y="100" width="120" height="60" as="geometry"/>
                </mxCell>
                <mxCell id="n0IIaEPZANX_IhDjPebx-48" style="edgeStyle=orthogonalEdgeStyle;rounded=0;orthogonalLoop=1;jettySize=auto;html=1;exitX=0;exitY=0.5;exitDx=0;exitDy=0;entryX=0.25;entryY=1;entryDx=0;entryDy=0;" edge="1" parent="1" source="33" target="30">
                    <mxGeometry relative="1" as="geometry"/>
                </mxCell>
                <mxCell id="33" value="mongodb" style="whiteSpace=wrap;html=1;rounded=0;" vertex="1" parent="1">
                    <mxGeometry x="691" y="180" width="120" height="60" as="geometry"/>
                </mxCell>
                <mxCell id="n0IIaEPZANX_IhDjPebx-49" style="edgeStyle=orthogonalEdgeStyle;rounded=0;orthogonalLoop=1;jettySize=auto;html=1;exitX=0;exitY=0.5;exitDx=0;exitDy=0;entryX=0;entryY=1;entryDx=0;entryDy=0;" edge="1" parent="1" source="36" target="30">
                    <mxGeometry relative="1" as="geometry"/>
                </mxCell>
                <mxCell id="36" value="realtionships" style="rounded=0;whiteSpace=wrap;html=1;" vertex="1" parent="1">
                    <mxGeometry x="691" y="330" width="120" height="60" as="geometry"/>
                </mxCell>
                <mxCell id="n0IIaEPZANX_IhDjPebx-50" value="" style="edgeStyle=orthogonalEdgeStyle;rounded=0;orthogonalLoop=1;jettySize=auto;html=1;" edge="1" parent="1" source="38" target="2">
                    <mxGeometry relative="1" as="geometry"/>
                </mxCell>
                <mxCell id="38" value="data structure" style="rounded=0;whiteSpace=wrap;html=1;" vertex="1" parent="1">
                    <mxGeometry x="25" y="20" width="120" height="60" as="geometry"/>
                </mxCell>
                <mxCell id="41" value="" style="edgeStyle=orthogonalEdgeStyle;rounded=0;orthogonalLoop=1;jettySize=auto;html=1;" edge="1" parent="1" source="39" target="38">
                    <mxGeometry relative="1" as="geometry"/>
                </mxCell>
                <mxCell id="39" value="alogorithm" style="rounded=0;whiteSpace=wrap;html=1;" vertex="1" parent="1">
                    <mxGeometry x="160" y="20" width="120" height="60" as="geometry"/>
                </mxCell>
                <mxCell id="46" value="nodejs/npm" style="rounded=0;whiteSpace=wrap;html=1;" vertex="1" parent="1">
                    <mxGeometry x="441" y="250" width="120" height="60" as="geometry"/>
                </mxCell>
                <mxCell id="AZURSVB4VajF0y3PMS-c-48" value="composer" style="rounded=0;whiteSpace=wrap;html=1;" vertex="1" parent="1">
                    <mxGeometry x="20" y="330" width="120" height="60" as="geometry"/>
                </mxCell>
                <mxCell id="n0IIaEPZANX_IhDjPebx-46" value="python/C#" style="rounded=0;whiteSpace=wrap;html=1;" vertex="1" parent="1">
                    <mxGeometry x="301" y="20" width="120" height="60" as="geometry"/>
                </mxCell>
                <mxCell id="L0AeVWy62qDHkbMBOuXX-47" value="Testing" style="rounded=0;whiteSpace=wrap;html=1;" vertex="1" parent="1">
                    <mxGeometry x="170" y="330" width="120" height="60" as="geometry"/>
                </mxCell>
                <mxCell id="4z1Th-t_x8NP9Tkj2DvX-46" value="add other stack name in here ..." style="rounded=0;whiteSpace=wrap;html=1;" vertex="1" parent="1">
                    <mxGeometry x="20" y="592" width="120" height="60" as="geometry"/>
                </mxCell>
                <mxCell id="4z1Th-t_x8NP9Tkj2DvX-48" value="Indexes" style="rounded=0;whiteSpace=wrap;html=1;" vertex="1" parent="1">
                    <mxGeometry x="701" y="420" width="120" height="60" as="geometry"/>
                </mxCell>
                <mxCell id="4z1Th-t_x8NP9Tkj2DvX-49" value="Caching" style="rounded=0;whiteSpace=wrap;html=1;" vertex="1" parent="1">
                    <mxGeometry x="170" y="592" width="120" height="60" as="geometry"/>
                </mxCell>
                <mxCell id="4z1Th-t_x8NP9Tkj2DvX-51" value="Additional stacks" style="text;html=1;strokeColor=none;fillColor=none;align=center;verticalAlign=middle;whiteSpace=wrap;rounded=0;" vertex="1" parent="1">
                    <mxGeometry x="40" y="552" width="110" height="20" as="geometry"/>
                </mxCell>
                <mxCell id="4z1Th-t_x8NP9Tkj2DvX-52" value="Web Security" style="rounded=0;whiteSpace=wrap;html=1;" vertex="1" parent="1">
                    <mxGeometry x="301" y="592" width="120" height="60" as="geometry"/>
                </mxCell>
                <mxCell id="4z1Th-t_x8NP9Tkj2DvX-53" value="Docker" style="rounded=0;whiteSpace=wrap;html=1;" vertex="1" parent="1">
                    <mxGeometry x="430" y="592" width="120" height="60" as="geometry"/>
                </mxCell>
                <mxCell id="4z1Th-t_x8NP9Tkj2DvX-56" value="Design and Development Principles" style="rounded=0;whiteSpace=wrap;html=1;" vertex="1" parent="1">
                    <mxGeometry x="301" y="330" width="120" height="60" as="geometry"/>
                </mxCell>
                <mxCell id="4z1Th-t_x8NP9Tkj2DvX-63" value="" style="edgeStyle=orthogonalEdgeStyle;rounded=0;orthogonalLoop=1;jettySize=auto;html=1;" edge="1" parent="1" source="4z1Th-t_x8NP9Tkj2DvX-57" target="4z1Th-t_x8NP9Tkj2DvX-56">
                    <mxGeometry relative="1" as="geometry"/>
                </mxCell>
                <mxCell id="4z1Th-t_x8NP9Tkj2DvX-57" value="SOLID" style="rounded=0;whiteSpace=wrap;html=1;" vertex="1" parent="1">
                    <mxGeometry x="441" y="330" width="120" height="60" as="geometry"/>
                </mxCell>
                <mxCell id="4z1Th-t_x8NP9Tkj2DvX-64" style="edgeStyle=orthogonalEdgeStyle;rounded=0;orthogonalLoop=1;jettySize=auto;html=1;exitX=0.25;exitY=0;exitDx=0;exitDy=0;entryX=0.75;entryY=1;entryDx=0;entryDy=0;" edge="1" parent="1" source="4z1Th-t_x8NP9Tkj2DvX-58" target="4z1Th-t_x8NP9Tkj2DvX-56">
                    <mxGeometry relative="1" as="geometry"/>
                </mxCell>
                <mxCell id="4z1Th-t_x8NP9Tkj2DvX-58" value="KISS" style="rounded=0;whiteSpace=wrap;html=1;" vertex="1" parent="1">
                    <mxGeometry x="441" y="420" width="120" height="60" as="geometry"/>
                </mxCell>
                <mxCell id="4z1Th-t_x8NP9Tkj2DvX-65" style="edgeStyle=orthogonalEdgeStyle;rounded=0;orthogonalLoop=1;jettySize=auto;html=1;exitX=0.5;exitY=0;exitDx=0;exitDy=0;" edge="1" parent="1" source="4z1Th-t_x8NP9Tkj2DvX-59" target="4z1Th-t_x8NP9Tkj2DvX-56">
                    <mxGeometry relative="1" as="geometry"/>
                </mxCell>
                <mxCell id="4z1Th-t_x8NP9Tkj2DvX-59" value="DRY" style="rounded=0;whiteSpace=wrap;html=1;" vertex="1" parent="1">
                    <mxGeometry x="571" y="420" width="120" height="60" as="geometry"/>
                </mxCell>
                <mxCell id="4z1Th-t_x8NP9Tkj2DvX-66" value="cmd (bash)" style="rounded=0;whiteSpace=wrap;html=1;" vertex="1" parent="1">
                    <mxGeometry x="170" y="500" width="120" height="60" as="geometry"/>
                </mxCell>
                <mxCell id="4z1Th-t_x8NP9Tkj2DvX-67" value="postgresql" style="whiteSpace=wrap;html=1;rounded=0;" vertex="1" parent="1">
                    <mxGeometry x="691" y="260" width="120" height="60" as="geometry"/>
                </mxCell>
            </root>
        </mxGraphModel>
    </diagram>
    <diagram id="wnOx_TBhfphy8_YksHmE" name="portfolios">
        <mxGraphModel dx="681" dy="605" grid="1" gridSize="10" guides="1" tooltips="1" connect="1" arrows="1" fold="1" page="1" pageScale="1" pageWidth="850" pageHeight="1100" math="0" shadow="0">
            <root>
                <mxCell id="ukt-xDX1b2VuCpHy-kfj-0"/>
                <mxCell id="ukt-xDX1b2VuCpHy-kfj-1" parent="ukt-xDX1b2VuCpHy-kfj-0"/>
                <mxCell id="ukt-xDX1b2VuCpHy-kfj-2" value="portfolio" style="rounded=0;whiteSpace=wrap;html=1;" vertex="1" parent="ukt-xDX1b2VuCpHy-kfj-1">
                    <mxGeometry x="310" y="30" width="120" height="60" as="geometry"/>
                </mxCell>
                <mxCell id="ukt-xDX1b2VuCpHy-kfj-3" value="frontend" style="rounded=0;whiteSpace=wrap;html=1;" vertex="1" parent="ukt-xDX1b2VuCpHy-kfj-1">
                    <mxGeometry x="240" y="130" width="120" height="60" as="geometry"/>
                </mxCell>
                <mxCell id="ukt-xDX1b2VuCpHy-kfj-4" value="react/vue" style="rounded=0;whiteSpace=wrap;html=1;" vertex="1" parent="ukt-xDX1b2VuCpHy-kfj-1">
                    <mxGeometry x="240" y="210" width="120" height="60" as="geometry"/>
                </mxCell>
                <mxCell id="ukt-xDX1b2VuCpHy-kfj-5" value="backend" style="rounded=0;whiteSpace=wrap;html=1;" vertex="1" parent="ukt-xDX1b2VuCpHy-kfj-1">
                    <mxGeometry x="380" y="130" width="120" height="60" as="geometry"/>
                </mxCell>
                <mxCell id="ukt-xDX1b2VuCpHy-kfj-6" value="framework laravel/symfony" style="rounded=0;whiteSpace=wrap;html=1;" vertex="1" parent="ukt-xDX1b2VuCpHy-kfj-1">
                    <mxGeometry x="380" y="210" width="120" height="60" as="geometry"/>
                </mxCell>
                <mxCell id="ukt-xDX1b2VuCpHy-kfj-7" value="wp" style="rounded=0;whiteSpace=wrap;html=1;" vertex="1" parent="ukt-xDX1b2VuCpHy-kfj-1">
                    <mxGeometry x="380" y="300" width="120" height="60" as="geometry"/>
                </mxCell>
                <mxCell id="ukt-xDX1b2VuCpHy-kfj-8" value="join to os communities" style="rounded=0;whiteSpace=wrap;html=1;" vertex="1" parent="ukt-xDX1b2VuCpHy-kfj-1">
                    <mxGeometry x="240" y="300" width="120" height="60" as="geometry"/>
                </mxCell>
                <mxCell id="bydvL2o2bj_-wHEwWTEG-0" value="posts blogs on tech sites" style="rounded=0;whiteSpace=wrap;html=1;" vertex="1" parent="ukt-xDX1b2VuCpHy-kfj-1">
                    <mxGeometry x="520" y="30" width="120" height="60" as="geometry"/>
                </mxCell>
                <mxCell id="RmETI5doOau1CRofNPMy-0" value="questions for interview on web development" style="rounded=0;whiteSpace=wrap;html=1;" vertex="1" parent="ukt-xDX1b2VuCpHy-kfj-1">
                    <mxGeometry x="530" y="130" width="120" height="60" as="geometry"/>
                </mxCell>
                <mxCell id="IWWPli9A-4xxnzhoQAZE-1" value="add other project name in here ..." style="rounded=0;whiteSpace=wrap;html=1;" vertex="1" parent="ukt-xDX1b2VuCpHy-kfj-1">
                    <mxGeometry x="240" y="390" width="120" height="60" as="geometry"/>
                </mxCell>
            </root>
        </mxGraphModel>
    </diagram>
</mxfile>